<svg id="Layer_1" data-name="Layer 1" xmlns="http://www.w3.org/2000/svg" viewBox="0 0 512 512"><defs><style>.cls-1{fill:#727272;}</style></defs><title>diamond-handdrawn</title><path class="cls-1" d="M476.5,248c-8.08-13.29-17.5-26.57-21.87-41.64a20.29,20.29,0,0,0-1.9-3.72c-5.23-9.41-10.32-18.89-15.75-28.19l-19.8-34.16-44-.3c-12.82,0-25.64,0-38.46.17l-32.33.31c-33.26.41-66.57,1-99.76-.56-18.3-.85-36.51-.49-54.77-.46l-8.44,0L91.74,139,57.65,195.6c-5.32,8.83-10.63,17.67-15.79,26.59-3.31,5.73-6.58,11.66-4.21,16.53,1,2-.12,4.46-1.6,7-2.18,3.79-4.09,7-6.41,11.3l-5.3,9.44,6.92,7.63L34,277.32l2.36,2.89c3.1,3.88,6,7.89,8.72,12.08,2.42,3.74,5.74,7.27,8.8,10.78l10.39,11.43,52.64,60.35,4.75,5.19,35.16,38.28c3.78,4.15,7.13,8.71,11,12.76l60.25,62.83A76,76,0,0,0,246.21,508a17.22,17.22,0,0,0,6.53,3.33c.48.22.93.48,1.41.69,0-.16-.05-.26-.09-.41.19-.23.37-.43.55-.62.64-.07,1.21-.11,1.38-.32a17.39,17.39,0,0,0,2.85-4c.17-.4.31-.81.48-1.21a123.15,123.15,0,0,0,11.06-11.59c6.82-7.67,14-15.08,21.1-22.48,3.32-3.45,7-6.11,10.83-6.65,4-.56,7.31-3.76,10.54-7.35l25.39-28.15c21.54-23.45,41.95-48,64.91-70.1,2.66-2.57,5-5.57,7.48-8.38,9-10.18,17.69-20.6,27-30.48l23.52-25,26.52-28.57Zm-110-88,39.92-.87.81,1.32,3.43,5.88c11.46,19.82,25,38.41,35,59.13,1,2,2.61,3.82,3.89,5.76,2.27,3.46,4.85,6.82,6.7,10.46l7.56,14.58,1.65,3.12c-1.72-.08-3.43-.19-5.15-.31s-3.32-1-4.41-3.49a4.15,4.15,0,0,0-4.52-2.8c-4.55.12-9.11.32-13.66.3-11.48,0-23,1.5-34.43-.48a18.46,18.46,0,0,0-4,.14c-4.89.26-9.78.88-14.67.72-9.39-.31-18.77-.86-28.17-.64a9.34,9.34,0,0,1-.74-1.74,121.85,121.85,0,0,0-9-25.64,91.29,91.29,0,0,1-5.36-15.78A11,11,0,0,0,339,205c-3.54-3.86-4.85-8.67-6-13.56a19.84,19.84,0,0,0-1.28-4.21l-9.53-18.74c-.86-1.69-2.06-3.24-2.63-5a18.25,18.25,0,0,0-1.64-3.63c1.11,0,2.22,0,3.33.09C336.36,160.45,351.42,160.35,366.48,160.06ZM288,403.92c1.6,1,1.59,1.9,1.29,2.77a38.19,38.19,0,0,0-1.2,3.76,18.38,18.38,0,0,1-5.95,10.28,10.36,10.36,0,0,0-2.28,3.76c-.69,1.45-1.08,3-1.76,4.47l-10.67,22.62c-.31.66-.53,1.36-.78,2l-5.68,15.16c-.63,1.63-1.83,3-2.34,4.72l-6.91,23.2c-.77-2.12-1.51-4.25-2.28-6.36-.25-.68-.67-1.31-.94-2-2.59-6.5-5.46-12.9-7.64-19.55-1.36-4.16-2.38-8.44-4.34-12.39a101.62,101.62,0,0,1-3.94-10.19c-1.51-4.11-2.69-8.35-4.51-12.33A32.27,32.27,0,0,1,225,423.39a7.51,7.51,0,0,0-.72-2.51c-2.39-5-5-10-7.19-15-1.21-2.81-2.55-5.67-2.42-8.86.27-6.7-1.61-12.7-2.74-18.94-.93-5.1-3.27-9.66-5.7-14.2a75.91,75.91,0,0,1-6-13.62c-2-6.71-3.32-13.69-4.93-20.56-.33-1.43-.6-2.89-1.07-4.27-2.09-6.23-4.7-12.28-6.27-18.68-2.6-10.58-8.54-19.85-12.12-30a99.58,99.58,0,0,0-4.47-9.74,45.58,45.58,0,0,1-2.07-4.94l-.07-.23c.3.09.62.13.92.24,7.14,2.63,14.4,3,21.62,4.14,5.9.94,11.8.36,17.71-.3a101.33,101.33,0,0,1,17.19-.79c8.1.47,16.18,1.74,24.27,2.67,1.69.19,3.37.46,5.06.52,7.6.25,15.21,0,22.79.75,12.52,1.32,25-1,37.49-.7,7,.14,14-1.41,21-.75-.48,1-1,2.07-1.39,3.13-4.19,10.72-9,21.19-12.58,32.15L320,312.33c-3.29,9.83-6.42,19.73-11.52,28.86-2.81,5-4.48,10.46-6.47,15.79-.3.82-.55,1.66-.89,2.47l-12.27,29.05c-1.24,3-2.47,5.93-3.52,9C284.65,399.41,284.08,401.45,288,403.92ZM258,159.13c16.35.19,32.74.07,49.07.37.8,2,1.54,4,2.24,6,.49,1.41.21,3-1.67,4.89s-1.65,3.34-1,4.7c1.68,3.56,3.44,7.08,5,10.69,3.95,9.1,9.32,17.58,11.48,27.45a13.83,13.83,0,0,0,1.53,3.15c1.93,3.77,4.19,7.39,5.74,11.32,3.25,8.28,6.2,16.69,10.16,24.68l.12.23a13.86,13.86,0,0,1-4-1.95,2.8,2.8,0,0,0-1.5-.25c-3.88-.26-7.76-.68-11.64-.72-13.32-.13-26.64-.94-40-.39-3.88.16-7.77.18-11.65.31-12,.41-24,1-36-.56-6.6-.85-13.16-.49-19.74-.46-1,0-2,.07-3,0-12.16-.39-24.32-.81-36.48-1.19-.56,0-1.12,0-1.69,0a134.6,134.6,0,0,0,6.51-13.81,91.41,91.41,0,0,1,8-14.64,11,11,0,0,0,1.95-4.86c.43-5.22,3.08-9.45,5.87-13.62a19.83,19.83,0,0,0,2.22-3.8L206.87,177c.65-1.78,1-3.71,1.92-5.35,2.47-4.29,2.8-9.36,3.1-14.43,10.7.48,21.4,1,32.11,1.43C248.68,158.81,253.35,159.08,258,159.13ZM45.23,243.73c4.85-8.51,9.79-17.38,15.65-24.87,12.31-15.75,22.84-32.93,34-49.61l4.93-7.65,2.53-4.07,11.16-.24,15.48-.56c15.86-.65,31.83-1.12,47.7-.79,9.29.19,18.56.57,27.83,1a74.5,74.5,0,0,1-4.15,8.58c-.71,1.32-2.09,2.22-4.72,2.09s-3.57,1.06-4.14,2.45c-1.47,3.65-2.86,7.34-4.45,10.94-4,9.07-6.58,18.78-12.37,27.06a13.86,13.86,0,0,0-1.27,3.26c-1.46,4-2.58,8.1-4.42,11.9-3.88,8-8.05,15.88-11.24,24.21l-1.66,4.75c-.27.7-.62,1.45-.95,2.19-.82,0-1.63,0-2.45.11a24.22,24.22,0,0,1-13.56-1.93,13.66,13.66,0,0,0-5-.8c-1.85-.13-3.71.06-5.57-.06-9.62-.63-19.24-1.32-28.85-2-.84-.06-1.69,0-2.54,0-6.24,0-12.49.11-18.73.06-2,0-4.05-.63-6.07-.52-10.45.59-20.89,1.42-31.34,2C42.44,248.65,43.87,246.12,45.23,243.73Zm164.51,215-4.88-5.06c-15.28-16.48-30.78-32.78-45.72-49.54-9.35-10.49-18.4-21.19-28.23-31.28-8.14-8.36-15.89-17.16-23.76-25.81-9.47-10.39-18.68-21-28.39-31.18A327.66,327.66,0,0,1,55.69,289.4a76.06,76.06,0,0,0-5.49-6.31L33.1,265.57c.7-1.31,1.53-2.86,2.46-4.55a10.34,10.34,0,0,0,1,.17c6.07.22,12.15.22,18.23.28.84,0,1.69-.17,2.53-.18,8.1-.12,16.2-.54,24.3-.23,5.06.2,10.11.76,15.19.33,4.2-.35,8.43-.11,12.64-.07,5.07,0,10.14.44,15.2.14a43.09,43.09,0,0,1,12.63.85,10,10,0,0,0,3,.22c4.24-.3,8.48-.67,12.72-1a27.61,27.61,0,0,1,0,4.66,3.16,3.16,0,0,0,.29,1.47c.94,3.22,1.73,6.51,2.89,9.65,4,10.81,7.27,21.86,11.86,32.43l3.86,9.31c4,9.55,8.25,19,10.47,29.25,1.22,5.63,3.56,10.81,5.61,16.12.32.82.69,1.61,1,2.44l10,29.9c1,3,2.08,6.08,3.29,9.05.78,1.91,1.7,3.81,6.25,3.09,1.87-.3,2.45.37,2.8,1.23a37.93,37.93,0,0,0,1.58,3.61,18.38,18.38,0,0,1,2.34,11.64,10.39,10.39,0,0,0,.78,4.33c.45,1.54,1.19,3,1.64,4.52l7,24c.2.7.51,1.37.77,2l5.78,15.12c.6,1.64.65,3.5,1.37,5.09l3.21,6.93ZM454.06,279l-18.32,20c-12,13.29-24.44,25.84-37.07,38.34a111.59,111.59,0,0,0-11.24,12.5c-9.51,12.88-20.74,24.06-32.13,35.17-3.34,3.26-6.75,6.51-9.86,10l-44.65,50.52c-4,4.55-7.79,9.38-12,13.69a249.92,249.92,0,0,0-22,26.48c1.8-5.22,3.57-10.45,5.76-15.52,1.73-4,3.8-7.9,4.95-12.16a101.75,101.75,0,0,1,3.79-10.24c1.59-4.08,3.51-8,4.78-12.23a32.28,32.28,0,0,1,4.66-9.91,7.47,7.47,0,0,0,1.13-2.36c1.53-5.34,2.85-10.77,4.58-16,1-2.9,1.85-5.94,4.06-8.24,4.64-4.84,7.2-10.58,10.48-16,2.68-4.44,3.94-9.41,5.13-14.42a75.85,75.85,0,0,1,4.52-14.17c2.91-6.38,6.58-12.46,9.92-18.67.7-1.29,1.46-2.56,2-3.91,2.56-6.05,4.61-12.31,7.67-18.15,5.06-9.65,6.74-20.53,10.8-30.54a99.57,99.57,0,0,0,3.1-10.26,47.76,47.76,0,0,1,1.57-4.62,171.77,171.77,0,0,0,23.7,1,121.92,121.92,0,0,1,19.21,1.41,14.65,14.65,0,0,0,6.06-.17c5.74-1.7,11.44-1,17.17-.08a26.58,26.58,0,0,0,5.06.51c8.1-.34,16.19-.79,24.29-1.22,2.19-.11,4.39-.59,6.57-.39a25.28,25.28,0,0,0,5.71-.19l-.07.07Z"/><path class="cls-1" d="M247.79,67.9c1.85.09,2.16.3,2.19.53a2.46,2.46,0,0,0,.2,1c.54,1,.17,1.93-1.93,2.88-.74.34-.68.71-.8,1.06s.06.79-.06,1.18c-.63,2-1.32,4.08-2,6.12a1.51,1.51,0,0,0,0,.54c0,1.33.11,2.65.06,4,0,.43-.63.86-.52,1.29.59,2.22,1.42,4.43,2,6.65.22.89,2.84,1.64,7,2.37a13.82,13.82,0,0,0,1.76-.27c.54-.38,1.18-.77,1.25-1.16a31.15,31.15,0,0,0,.28-3.87c0-.18-.17-.36-.18-.54-.12-1.72-.54-3.44-.23-5.16.2-1.07.76-2.14.33-3.22a6.2,6.2,0,0,1-.08-2.68c0-1.08.44-2.15.14-3.22a2.42,2.42,0,0,1,.85-2.68.57.57,0,0,0,.22-.64,31.3,31.3,0,0,1-1.39-4.08c-.14-.75-.37-1.52.88-2.25,2.63-1.51,3-3.05,4.14-4.59.94-1.25.36-2.5-.31-3.76a5,5,0,0,1-.79-3.65c.47-1.72,1.74-3.43,2.67-5.15a3.8,3.8,0,0,0,.51-1.07c.25-1.61,0-3.23.75-4.83,1.32-2.66-1-5.3-.7-8,.17-1.75-2.07-3.5-.17-5.25.19-.17-.32-.35-.43-.53s-.72-.64-.47-1a8.63,8.63,0,0,0,2-6.65,6.6,6.6,0,0,1,1.42-4.08c.27-.43.41-.87-.17-1.29-1.7-1.22-1-2.43-.08-3.64.26-.36.58-.72.51-1.07-.34-1.72-.79-3.44-1.22-5.15-.11-.46-.59-.93-.39-1.39.63-1.42-1.85-2.78-3.83-4.15A3.79,3.79,0,0,0,260,.15,12.46,12.46,0,0,0,258,0a8.11,8.11,0,0,0-1.7.2c-1.59.51-1.23,1-1.12,1.59a4.68,4.68,0,0,1-.36,2.36c-.12.37-1,.7-3.49.93s-2.85.59-2.81,1a21.94,21.94,0,0,1,.3,2.9c0,2.43,1.5,4.87-.48,7.3-.23.28.07.57.14.86.26,1,.88,2.07.72,3.11-.34,2.18-1,4.36-.59,6.55.23,1.19,1.61,2.43-2.27,3.59-.31.09-.22.21-.25.32a10.31,10.31,0,0,0-.72,2.47c-.13,2.82-.94,5.65-.39,8.48.16.82.18,1.65.31,2.47.41,2.54,1,5.09-.56,7.63-.85,1.4-.49,2.79-.46,4.19a3.56,3.56,0,0,1,0,.64c-.39,2.58-.81,5.16-1.19,7.74a9.43,9.43,0,0,0-.12,2.36C243.1,67.16,243.29,67.67,247.79,67.9Z"/><path class="cls-1" d="M104.54,42.24a16.38,16.38,0,0,1,2.06,1.43c1.55,1.41,4.13,1.67,4.38,4.53,0,.33.42.27.65.38.84.4,1.92.53,2.48,1.24,1.18,1.5,2.13,3.25,3.82,4.18.92.51,2.63.19.8,3.75-.14.28,0,.28,0,.37a7.91,7.91,0,0,0,1.11,1.95c1.73,1.71,3,3.93,5.19,5.13.64.35,1.18.81,1.8,1.18,1.91,1.15,3.92,2.18,4.53,4.78.34,1.43,1.47,2,2.39,2.74a2.57,2.57,0,0,1,.44.34c1.4,1.76,2.78,3.55,4.18,5.31A7,7,0,0,0,139.84,81c.36.25.82.4,4-2.84,1.29-1.33,1.63-1.44,1.79-1.34a1.88,1.88,0,0,0,.76.4c1,.15,1.35,1,.57,3.08a1.06,1.06,0,0,0,.15,1.21c.17.32.54.41.72.72.89,1.64,1.74,3.32,2.62,5,.08.14.23.21.34.31.87.74,1.77,1.43,2.59,2.23.26.26.13,1,.48,1.12,1.82.83,3.79,1.47,5.58,2.34.72.35,2.94-1.19,6.17-3.88a15.64,15.64,0,0,0,1-1.47c.11-.63.29-1.33.08-1.6a23.13,23.13,0,0,0-2.3-2.42c-.11-.11-.34-.08-.47-.17-1.19-.89-2.57-1.56-3.47-2.77-.56-.76-.88-1.79-1.85-2.09-.81-.24-1.23-.94-1.77-1.47s-1.09-1.56-2-2a1.91,1.91,0,0,1-1.16-2.17c0-.29-.08-.46-.27-.53a24.73,24.73,0,0,1-3.55-1.29,1.39,1.39,0,0,1-.86-1.94c.77-2.83,0-4-.2-5.71-.18-1.41-1.37-1.7-2.62-1.92a3.85,3.85,0,0,1-2.87-1.49c-.79-1.33-1-3.26-1.54-4.94a3.09,3.09,0,0,0-.35-1c-.87-1.11-2.11-1.81-2.61-3.32-.83-2.5-4-2.31-5.58-4-1-1.13-3.62-.45-3.49-2.87,0-.24-.44,0-.63,0s-.89.17-.92-.19a6.74,6.74,0,0,0-2.92-5.33c-1-.66-1.37-2-1.68-3.39-.1-.44-.29-.8-.94-.61-1.91.57-2.2-.67-2.4-2-.06-.4-.07-.84-.35-1-1.33-.73-2.74-1.37-4.12-2-.37-.18-1-.09-1.15-.51-.49-1.28-3-.21-5.21.49a4.29,4.29,0,0,0-1.08.7A14.42,14.42,0,0,0,107,31.7a9.2,9.2,0,0,0-1,1.38c-.73,1.48-.14,1.52.28,1.75a3.52,3.52,0,0,1,1.27,1.62c.15.3-.23,1.17-1.72,3.14S104.27,42.06,104.54,42.24Z"/><path class="cls-1" d="M344.2,89.11c.61.18,1.28.44,1.58.27a23.28,23.28,0,0,0,2.67-2c.12-.09.12-.33.22-.44,1-1.07,1.85-2.37,3.16-3.12.82-.46,1.88-.66,2.29-1.6.34-.77,1.07-1.11,1.67-1.59s1.68-.9,2.17-1.73a1.91,1.91,0,0,1,2.29-.9c.29.05.47,0,.56-.2a24.38,24.38,0,0,1,1.7-3.37,1.39,1.39,0,0,1,2-.63c2.72,1.1,4,.49,5.7.47,1.43,0,1.85-1.16,2.21-2.37a3.86,3.86,0,0,1,1.82-2.67c1.41-.63,3.36-.66,5.08-.95a3.06,3.06,0,0,0,1-.23c1.2-.73,2-1.88,3.61-2.2,2.58-.53,2.77-3.74,4.64-5.07,1.24-.87.88-3.55,3.26-3.13.23,0,0-.44.06-.62s-.07-.9.29-.9a6.73,6.73,0,0,0,5.63-2.28c.77-.9,2.12-1.13,3.56-1.27.45,0,.83-.19.71-.86-.34-2,.92-2.11,2.29-2.14.4,0,.85,0,1-.23.88-1.24,1.68-2.56,2.5-3.86.22-.35.21-1,.64-1.09,1.33-.34.56-3,.12-5.23a4.27,4.27,0,0,0-.57-1.15A14.12,14.12,0,0,0,407,36.48a9.28,9.28,0,0,0-1.26-1.16c-1.39-.9-1.49-.32-1.77.07a3.53,3.53,0,0,1-1.76,1.08c-.32.12-1.14-.37-2.92-2.08s-2.27-1.79-2.48-1.55a16.39,16.39,0,0,1-1.66,1.88c-1.59,1.37-2.14,3.9-5,3.81-.33,0-.32.38-.46.6-.5.79-.75,1.84-1.52,2.31-1.63,1-3.48,1.74-4.6,3.31-.61.85-.49,2.59-3.81.36-.27-.18-.28,0-.37,0a7.91,7.91,0,0,0-2.06.87c-1.9,1.52-4.26,2.53-5.71,4.55-.42.59-.94,1.08-1.38,1.65-1.36,1.76-2.62,3.64-5.27,3.94-1.46.16-2.12,1.23-3,2a2.66,2.66,0,0,1-.39.4c-1.92,1.18-3.86,2.34-5.76,3.53a7.06,7.06,0,0,0-1.6,1.26c-.29.33-.5.77,2.35,4.27,1.17,1.44,1.24,1.78,1.12,1.94a1.86,1.86,0,0,0-.49.7c-.26,1-1.13,1.23-3.13.2a1.06,1.06,0,0,0-1.21,0c-.34.13-.47.49-.8.63-1.73.69-3.5,1.34-5.25,2-.15.06-.24.2-.35.3-.83.78-1.63,1.59-2.52,2.31-.29.23-1,0-1.17.35-1,1.71-1.91,3.6-3,5.27-.43.67.84,3.06,3.13,6.58A16,16,0,0,0,344.2,89.11Z"/></svg>